<svg width="30" height="30" viewBox="0 0 30 30" fill="none" xmlns="http://www.w3.org/2000/svg">
<path d="M24.6796 23.1316L20.6835 19.1449C21.1462 18.5466 21.5281 17.8922 21.8246 17.1908C22.2806 16.1084 22.512 14.9588 22.512 13.7756C22.512 12.5924 22.2806 11.4428 21.8246 10.3604C21.3843 9.31609 20.7531 8.37713 19.949 7.57038C19.1448 6.76363 18.2081 6.13168 17.1658 5.68797C16.0854 5.23306 14.9375 5 13.756 5C12.5744 5 11.4266 5.23306 10.3461 5.69246C9.30386 6.13393 8.36717 6.76812 7.563 7.57486C6.75883 8.38161 6.12763 9.31833 5.68736 10.3649C5.23137 11.4472 5 12.5969 5 13.7801C5 14.9633 5.23137 16.1129 5.68736 17.1953C6.12763 18.2396 6.75883 19.1785 7.563 19.9853C8.36717 20.792 9.30386 21.424 10.3461 21.8677C11.4266 22.3271 12.5744 22.5579 13.756 22.5579C14.9375 22.5579 16.0854 22.3249 17.1658 21.8677C17.8779 21.5652 18.5406 21.1752 19.1448 20.7024L23.1342 24.6823C23.5587 25.1059 24.2551 25.1059 24.6819 24.6823C25.1064 24.2498 25.1064 23.5551 24.6796 23.1316ZM13.756 20.7629C9.9171 20.7629 6.79253 17.63 6.79253 13.7778C6.79253 9.92563 9.91485 6.79277 13.756 6.79277C17.5949 6.79277 20.7194 9.92563 20.7194 13.7778C20.7194 17.63 17.5949 20.7629 13.756 20.7629Z" fill="black" fill-opacity="0.38"/>
</svg>
