<svg width="34" height="34" viewBox="0 0 34 34" fill="none" xmlns="http://www.w3.org/2000/svg">
<path d="M24.1315 6.37605C24.1301 6.21951 24.0979 6.06477 24.0366 5.92072C23.9753 5.77666 23.8862 5.64611 23.7743 5.53656C23.6625 5.427 23.5302 5.34058 23.3849 5.28226C23.2396 5.22394 23.0842 5.19485 22.9277 5.19668H19.9208V6.37605C19.9208 7.02843 19.38 7.55649 18.7149 7.55649H8.48619C8.1702 7.55932 7.86601 7.43657 7.64048 7.21523C7.41495 6.99388 7.28653 6.69204 7.28344 6.37605V5.19668H3.67307C3.009 5.19668 2.46925 5.7258 2.46925 6.37605V28.8033C2.46925 29.4536 3.00794 29.9827 3.67307 29.9827H13.3004L15.708 32.3436H2.46925C1.14007 32.3436 0.0626907 31.2864 0.0626907 29.9827V5.19668C0.0626907 3.89299 1.14007 2.8358 2.46925 2.8358H7.28344C7.28344 2.18343 7.82213 1.65536 8.48619 1.65536H18.7149C19.38 1.65536 19.9208 2.18343 19.9208 2.8358H24.1315C25.4628 2.8358 26.5381 3.89299 26.5381 5.19668V16.0278L24.1315 18.479V6.37605Z" fill="white"/>
<path d="M18.7149 14.6391H7.88481C7.8065 14.64 7.72879 14.6253 7.65614 14.5961C7.58349 14.5668 7.51733 14.5235 7.46146 14.4686C7.40559 14.4137 7.3611 14.3484 7.33056 14.2762C7.30001 14.2041 7.28399 14.1267 7.28344 14.0484V13.4587C7.28413 13.3805 7.30025 13.3031 7.33086 13.2311C7.36147 13.1591 7.40598 13.0939 7.46184 13.0391C7.51769 12.9843 7.5838 12.9411 7.65638 12.9119C7.72896 12.8827 7.80659 12.8682 7.88481 12.869H18.7149C19.0474 12.869 19.3184 13.1336 19.3184 13.4587V14.0484C19.3177 14.1268 19.3015 14.2044 19.2708 14.2766C19.24 14.3488 19.1954 14.4142 19.1393 14.4691C19.0832 14.5239 19.0169 14.5672 18.944 14.5964C18.8712 14.6256 18.7933 14.6401 18.7149 14.6391ZM19.3194 20.5402C19.3186 20.6187 19.3023 20.6961 19.2716 20.7683C19.2408 20.8404 19.1961 20.9058 19.14 20.9606C19.084 21.0155 19.0177 21.0588 18.9449 21.088C18.8722 21.1172 18.7944 21.1318 18.7159 21.131H7.88481C7.8065 21.1318 7.72879 21.1172 7.65614 21.0879C7.58349 21.0587 7.51733 21.0154 7.46146 20.9605C7.40559 20.9056 7.3611 20.8402 7.33056 20.7681C7.30001 20.696 7.28399 20.6186 7.28344 20.5402V19.9506C7.28399 19.8722 7.30001 19.7948 7.33056 19.7227C7.3611 19.6506 7.40559 19.5852 7.46146 19.5303C7.51733 19.4754 7.58349 19.4321 7.65614 19.4029C7.72879 19.3736 7.8065 19.359 7.88481 19.3598H18.7149C19.0474 19.3598 19.3184 19.6233 19.3184 19.9506V20.5402H19.3194ZM17.3549 27.2436V30.6988H20.8091L30.9953 20.5094L27.5411 17.0563L17.3549 27.2436ZM33.6685 17.8394C33.8392 17.6664 33.9348 17.4332 33.9348 17.1902C33.9348 16.9472 33.8392 16.714 33.6685 16.541L31.5116 14.3852C31.4265 14.2997 31.3254 14.2319 31.2139 14.1858C31.1025 14.1397 30.983 14.1161 30.8624 14.1164C30.742 14.1161 30.6227 14.1398 30.5115 14.1859C30.4002 14.2321 30.2992 14.2998 30.2143 14.3852L28.5292 16.0703L31.9823 19.5234L33.6685 17.8394Z" fill="white"/>
</svg>
