<svg width="33" height="34" viewBox="0 0 33 34" fill="none" xmlns="http://www.w3.org/2000/svg">
<g clip-path="url(#clip0)">
<path d="M0.137695 33.5C3.4123 26.9008 7.59154 20.7908 12.5546 15.3465C17.1369 10.1864 22.5718 5.85193 28.622 2.53229C24.9096 5.23645 21.345 8.1379 17.9435 11.2241C8.35767 19.68 2.26098 32.2707 2.26098 32.2707L0.137695 33.5Z" fill="white"/>
<path d="M23.618 3.41389C23.0279 3.84127 22.5332 4.38676 22.1652 5.01567C21.8667 5.56263 21.6572 6.15362 21.5444 6.76645V4.44449C18.0091 6.25984 14.7243 8.52621 11.7723 11.1869L10.7665 12.1678C10.3692 12.5527 10.2202 15.6942 10.2202 15.6942C10.2202 15.6942 9.67386 13.3101 9.50002 13.5088C3.04324 20.6113 3.47783 25.5904 4.60777 27.2791C6.55722 23.5541 8.85434 18.9474 12.6663 15.4334C24.0154 4.97842 29.4664 2.44537 29.5533 2.40812C25.6683 5.25343 21.9379 8.30404 18.3781 11.5469C13.1382 16.2405 8.92884 23.1319 6.22196 28.3097C8.14658 29.0175 11.6233 28.1483 15.0007 25.3669C18.0677 22.8836 22.8978 15.0982 22.8978 15.0982L17.4841 16.166C18.7785 15.3147 20.1311 14.5554 21.532 13.8937C22.9723 13.2481 24.4499 13.0742 24.4996 12.9004C24.959 11.4476 24.9094 10.5536 27.6659 6.44361C28.9206 4.60456 30.3154 2.86516 31.838 1.24094C31.838 1.24094 29.1435 0.806347 23.618 3.41389Z" fill="white"/>
</g>
<defs>
<clipPath id="clip0">
<rect width="33" height="33" fill="white" transform="translate(0 0.5)"/>
</clipPath>
</defs>
</svg>
